<?xml version="1.0" encoding="UTF-8"?>
<!DOCTYPE svg PUBLIC "-//W3C//DTD SVG 1.1//EN" "http://www.w3.org/Graphics/SVG/1.1/DTD/svg11.dtd">
<!-- Creator: CorelDRAW X7 -->
<svg xmlns="http://www.w3.org/2000/svg" xml:space="preserve" width="1200px" height="189px" version="1.1" shape-rendering="geometricPrecision" text-rendering="geometricPrecision" image-rendering="optimizeQuality" fill-rule="evenodd" clip-rule="evenodd"
viewBox="0 0 586 92"
 xmlns:xlink="http://www.w3.org/1999/xlink">
 <g id="Layer_x0020_1">
  <metadata id="CorelCorpID_0Corel-Layer"/>
  <path fill="white" d="M561 34l-12 0 0 -3 -3 0 0 30 3 0 0 12 -21 0 0 -12 3 0 0 -30 -3 0 0 3 -12 0 0 -15 45 0 0 15zm-71 27l10 0 0 -2 12 0 0 14 -40 0 0 -12 3 0 0 -30 -3 0 0 -12 40 0 0 14 -12 0 0 -2 -10 0 0 9 2 0 0 -2 13 0 0 16 -13 0 0 -2 -2 0 0 9zm-39 12l-15 -24 0 12 3 0 0 12 -21 0 0 -12 3 0 0 -30 -3 0 0 -12 17 0 15 25 0 -13 -3 0 0 -12 21 0 0 12 -3 0 0 30 3 0 0 12 -17 0zm-66 -25l7 0 -4 -8 -3 8zm18 -29l0 12 -3 0 12 30 3 0 0 12 -21 0 0 -12 2 0 -1 -2 -14 0 -1 2 2 0 0 12 -21 0 0 -12 3 0 12 -30 -2 0 0 -12 29 0zm-86 42l2 0 0 12 -28 0 0 -12 2 0 -10 -30 -4 0 0 -12 22 0 0 12 -2 0 6 18 6 -18 -2 0 0 -12 25 0 0 12 -2 0 6 18 6 -18 -2 0 0 -12 22 0 0 12 -4 0 -10 30 2 0 0 12 -28 0 0 -12 2 0 -4 -13 -5 13zm-66 -13l7 0 -4 -8 -3 8zm18 -29l0 12 -3 0 12 30 3 0 0 12 -20 0 0 -12 1 0 0 -2 -15 0 -1 2 2 0 0 12 -21 0 0 -12 4 0 12 -30 -3 0 0 -12 29 0zm-39 15l-12 0 0 -3 -3 0 0 30 3 0 0 12 -21 0 0 -12 3 0 0 -30 -3 0 0 3 -12 0 0 -15 45 0 0 15zm-66 18l-16 0 -8 -8 0 -16 8 -9 24 0 9 9 0 10 -15 0 0 -5 -2 -2 -8 0 -1 2 0 5 1 2 16 0 9 9 0 16 -9 8 -24 0 -8 -8 0 -11 15 0 0 5 1 2 8 0 2 -2 0 -5 -2 -2zm-31 12l-9 9 -24 0 -8 -8 0 -34 -4 0 0 -12 22 0 0 12 -4 0 0 28 2 2 8 0 2 -2 0 -28 -3 0 0 -12 21 0 0 12 -3 0 0 33zm-78 2l-12 -19 0 14 3 0 0 12 -21 0 0 -12 3 0 0 -30 -3 0 0 -12 17 0 13 21 12 -21 18 0 0 12 -4 0 0 30 4 0 0 12 -22 0 0 -12 4 0 0 -14 -12 19z"/>
  <g id="_337420312">
   <rect fill="white" y="82" width="586.138" height="10.3947"/>
   <rect fill="white" width="586.138" height="10.3947"/>
  </g>
 </g>
</svg>
